<svg height="480pt" viewBox="0 -48 480 480" width="480pt" xmlns="http://www.w3.org/2000/svg"><path d="m248 320h126.722656c3.726563-.292969 6.871094-2.894531 7.859375-6.5l6.664063-23.300781c.816406-2.757813.089844-5.742188-1.902344-7.816407-1.992188-2.074218-4.945312-2.917968-7.734375-2.210937s-4.980469 2.855469-5.746094 5.628906l-5.207031 18.199219h-120.65625c-4.417969 0-8 3.582031-8 8s3.582031 8 8 8zm0 0"/><path d="m386.21875 271.691406c2.039062.589844 4.230469.339844 6.085938-.691406 1.855468-1.03125 3.226562-2.757812 3.804687-4.800781l3.582031-12.535157c1.167969-4.230468-1.289062-8.617187-5.511718-9.824218-4.222657-1.207032-8.625 1.214844-9.871094 5.425781l-3.582032 12.535156c-1.214843 4.246094 1.246094 8.675781 5.492188 9.890625zm0 0"/><path d="m456 160h-192v-104c0-30.929688-25.070312-56-56-56s-56 25.070312-56 56v24h48v-24c0-4.417969 3.582031-8 8-8s8 3.582031 8 8v104h-192c-13.25.015625-23.984375 10.75-24 24v24h33.96875l32.394531 113.261719c4.152344 17.558593 19.597657 30.132812 37.636719 30.628906v32.109375h48v-32h176v32h48v-32.109375c17.917969-.453125 33.308594-12.867187 37.546875-30.28125l32.488281-113.609375h33.964844v-24c-.015625-13.25-10.75-23.984375-24-24zm-248-128c-13.25.015625-23.984375 10.75-24 24v8h-16v-8c0-22.089844 17.910156-40 40-40s40 17.910156 40 40v104h-16v-104c-.015625-13.25-10.75-23.984375-24-24zm-72 336h-16v-16h16zm224 0h-16v-16h16zm38.074219-50.441406c-2.550781 10.828125-12.226563 18.472656-23.351563 18.441406h-269.445312c-11.246094-.011719-20.984375-7.816406-23.441406-18.789062l-31.226563-109.210938h378.78125zm65.925781-125.558594h-448v-8c.003906-4.414062 3.585938-7.996094 8-8h432c4.414062.003906 7.996094 3.585938 8 8zm0 0"/><path d="m192 96c-13.253906 0-24 10.746094-24 24s10.746094 24 24 24 24-10.746094 24-24c-.015625-13.25-10.75-23.984375-24-24zm0 32c-4.417969 0-8-3.582031-8-8s3.582031-8 8-8 8 3.582031 8 8c-.003906 4.414062-3.585938 7.996094-8 8zm0 0"/><path d="m288 144c13.253906 0 24-10.746094 24-24s-10.746094-24-24-24-24 10.746094-24 24c.015625 13.25 10.75 23.984375 24 24zm0-32c4.417969 0 8 3.582031 8 8s-3.582031 8-8 8-8-3.582031-8-8c.003906-4.414062 3.585938-7.996094 8-8zm0 0"/></svg>